# xmcd
#
# Track frame offsets: 
#        150
#        17540
#        34217
#        59880
#        80111
#        95443
#        112992
#        135752
#        153511
#        181673
#        193196
#        209559
#
# Disc length: 3335 seconds
#
# Revision: 0
# Processed by: cddbd v1.5.2PL0 Copyright (c) Steve Scherf et al.
# Submitted via: ExactAudioCopy v0.95a3
#
DISCID=a10d050c
DTITLE=Øernes Blues Band - Side Tracked
DYEAR=2006
DGENRE=Blues
TTITLE0=Going To New York
TTITLE1=When Mary Slammed The Door
TTITLE2=Worried Down With The Blues
TTITLE3=One Way Out
TTITLE4=Looking For Somebody
TTITLE5=Woke Up This Morning
TTITLE6=You Don't Have To Go
TTITLE7=Shame, Shame, Shame
TTITLE8=Make It Rain
TTITLE9=Side Tracked
TTITLE10=Little Wing
TTITLE11=All Along The Watchtower
EXTD=
EXTT0=
EXTT1=
EXTT2=
EXTT3=
EXTT4=
EXTT5=
EXTT6=
EXTT7=
EXTT8=
EXTT9=
EXTT10=
EXTT11=
PLAYORDER=
